# xmcd
#
# Track frame offsets:
#	150
#	17798
#	37952
#	55168
#	72594
#	96064
#	112169
#	129795
#	150133
#
# Disc length: 3068 seconds
#
# Revision: 1
# Processed by: cddbd v1.5.1PL0 Copyright (c) Steve Scherf et al.
# Submitted via: audiograbber 1.83.01
#
DISCID=6a0bfa09
DTITLE=Jay Gordon - White Heaven Powdered Black
DYEAR=2000
DGENRE=Electric Blues
TTITLE0=Let It Ring
TTITLE1=Freight Train
TTITLE2=Propaganda
TTITLE3=Karma (Gonna Get Ya)
TTITLE4=Juke Joint
TTITLE5=Molly Jones
TTITLE6=Savage Resurrection ( Instrumental)
TTITLE7=Preview of Tracks
TTITLE8=Savage Resurrection ( Long Version The Ultimate, No Rest For The Rocker
TTITLE8=)
EXTD=
EXTT0=
EXTT1=
EXTT2=
EXTT3=
EXTT4=
EXTT5=
EXTT6=
EXTT7=Bonus Track
EXTT8=Bonus Track
PLAYORDER=
